<svg xmlns="http://www.w3.org/2000/svg" xmlns:xlink="http://www.w3.org/1999/xlink" width="1080" zoomAndPan="magnify" viewBox="0 0 810 809.999993" height="1080" preserveAspectRatio="xMidYMid meet" version="1.0"><defs><clipPath id="a012f79d9b"><path d="M 105.257812 107 L 490 107 L 490 704.507812 L 105.257812 704.507812 Z M 105.257812 107 " clip-rule="nonzero"/></clipPath></defs><g clip-path="url(#a012f79d9b)"><path fill="#ffffff" d="M 477.621094 109.726562 C 470.476562 106.101562 461.894531 106.746094 455.394531 111.476562 L 226.324219 278.0625 L 126.589844 278.0625 C 114.800781 278.0625 105.257812 287.605469 105.257812 299.398438 L 105.257812 512.738281 C 105.257812 524.527344 114.800781 534.070312 126.589844 534.070312 L 226.324219 534.070312 L 455.394531 700.660156 C 459.101562 703.367188 463.519531 704.742188 467.933594 704.742188 C 471.246094 704.742188 474.558594 703.972656 477.621094 702.410156 C 484.769531 698.785156 489.269531 691.429688 489.269531 683.40625 L 489.269531 128.726562 C 489.269531 120.703125 484.769531 113.351562 477.621094 109.726562 Z M 477.621094 109.726562 " fill-opacity="1" fill-rule="nonzero"/></g><path fill="#ffffff" d="M 696.359375 326.980469 C 688.023438 318.648438 674.523438 318.648438 666.191406 326.980469 L 617.273438 375.898438 L 568.355469 326.980469 C 560.019531 318.648438 546.519531 318.648438 538.1875 326.980469 C 529.855469 335.316406 529.855469 348.816406 538.1875 357.148438 L 587.105469 406.066406 L 538.1875 454.984375 C 529.855469 463.316406 529.855469 476.820312 538.1875 485.152344 C 542.355469 489.320312 547.8125 491.402344 553.269531 491.402344 C 558.730469 491.402344 564.1875 489.320312 568.355469 485.152344 L 617.273438 436.234375 L 666.191406 485.152344 C 670.359375 489.320312 675.816406 491.402344 681.273438 491.402344 C 686.734375 491.402344 692.191406 489.320312 696.359375 485.152344 C 704.691406 476.820312 704.691406 463.316406 696.359375 454.984375 L 647.441406 406.066406 L 696.359375 357.148438 C 704.691406 348.816406 704.691406 335.316406 696.359375 326.980469 Z M 696.359375 326.980469 " fill-opacity="1" fill-rule="nonzero"/><path stroke-linecap="butt" transform="matrix(0.75, 0, 0, 0.75, 230.455979, 405)" fill="none" stroke-linejoin="miter" d="M 0.00140286 2.000001 L 98.438908 2.000001 " stroke="#ffffff" stroke-width="4" stroke-opacity="1" stroke-miterlimit="4"/></svg>