<svg xmlns="http://www.w3.org/2000/svg" xmlns:xlink="http://www.w3.org/1999/xlink" width="1080" zoomAndPan="magnify" viewBox="0 0 810 809.999993" height="1080" preserveAspectRatio="xMidYMid meet" version="1.0"><defs><clipPath id="e1f482e203"><path d="M 42.007812 127 L 370 127 L 370 683.953125 L 42.007812 683.953125 Z M 42.007812 127 " clip-rule="nonzero"/></clipPath></defs><path stroke-linecap="butt" transform="matrix(0.75, 0, 0, 0.75, 230.455979, 405)" fill="none" stroke-linejoin="miter" d="M 0.00140286 2.000001 L 98.438908 2.000001 " stroke="#ffffff" stroke-width="4" stroke-opacity="1" stroke-miterlimit="4"/><g clip-path="url(#e1f482e203)"><path fill="#ffffff" d="M 359.96875 129.007812 C 354.324219 126.292969 347.582031 127.0625 342.65625 130.988281 L 183.558594 258.269531 L 58.417969 258.269531 C 49.386719 258.269531 42.058594 265.597656 42.058594 274.628906 L 42.058594 536.390625 C 42.058594 545.4375 49.386719 552.75 58.417969 552.75 L 183.558594 552.75 L 342.675781 680.046875 C 345.621094 682.417969 349.25 683.628906 352.882812 683.628906 C 355.289062 683.628906 357.710938 683.105469 359.96875 682.011719 C 365.644531 679.277344 369.242188 673.550781 369.242188 667.269531 L 369.242188 143.75 C 369.242188 137.464844 365.644531 131.722656 359.96875 129.007812 Z M 359.96875 129.007812 " fill-opacity="1" fill-rule="nonzero"/></g><path fill="#ffffff" d="M 495.328125 299.054688 C 488.933594 292.65625 478.59375 292.65625 472.195312 299.054688 C 465.800781 305.453125 465.800781 315.808594 472.195312 322.1875 C 493.839844 343.832031 505.769531 372.59375 505.769531 403.167969 C 505.769531 433.746094 493.839844 462.492188 472.195312 484.152344 C 465.800781 490.546875 465.800781 500.886719 472.195312 507.285156 C 475.386719 510.476562 479.574219 512.078125 483.761719 512.078125 C 487.953125 512.078125 492.140625 510.476562 495.328125 507.285156 C 523.160156 479.457031 538.488281 442.484375 538.488281 403.167969 C 538.488281 363.855469 523.175781 326.882812 495.328125 299.054688 Z M 495.328125 299.054688 " fill-opacity="1" fill-rule="nonzero"/><path fill="#ffffff" d="M 634.160156 160.238281 C 627.765625 153.84375 617.425781 153.84375 611.027344 160.238281 C 604.632812 166.636719 604.632812 176.976562 611.027344 183.371094 C 732.207031 304.566406 732.207031 501.773438 611.027344 622.984375 C 604.632812 629.378906 604.632812 639.71875 611.027344 646.117188 C 614.21875 649.304688 618.40625 650.910156 622.59375 650.910156 C 626.78125 650.910156 630.972656 649.304688 634.160156 646.117188 C 768.085938 512.160156 768.085938 294.179688 634.160156 160.238281 Z M 634.160156 160.238281 " fill-opacity="1" fill-rule="nonzero"/><path fill="#ffffff" d="M 564.761719 229.640625 C 558.363281 223.242188 548.027344 223.242188 541.628906 229.640625 C 535.230469 236.035156 535.230469 246.375 541.628906 252.773438 C 581.824219 292.984375 603.976562 346.382812 603.976562 403.152344 C 603.976562 459.921875 581.824219 513.339844 541.628906 553.535156 C 535.230469 559.933594 535.230469 570.269531 541.628906 576.667969 C 544.820312 579.859375 549.007812 581.460938 553.195312 581.460938 C 557.382812 581.460938 561.570312 579.859375 564.761719 576.667969 C 611.144531 530.289062 636.679688 468.660156 636.679688 403.152344 C 636.679688 337.648438 611.144531 276.019531 564.761719 229.640625 Z M 564.761719 229.640625 " fill-opacity="1" fill-rule="nonzero"/></svg>